<mxfile host="app.diagrams.net" modified="2023-11-23T20:15:34.227Z" agent="Mozilla/5.0 (X11; Ubuntu; Linux x86_64; rv:120.0) Gecko/20100101 Firefox/120.0" version="22.1.3" etag="itP_d7dokWYztL2OFnmF" type="device">
  <diagram name="PÃ¡gina-1" id="OQPNhpq00jlVtxKzGsJJ">
    <mxGraphModel dx="880" dy="481" grid="1" gridSize="10" guides="1" tooltips="1" connect="1" arrows="1" fold="1" page="1" pageScale="1" pageWidth="827" pageHeight="1169" math="0" shadow="0">
      <root>
        <mxCell id="0" />
        <mxCell id="1" parent="0" />
        <mxCell id="29" style="edgeStyle=orthogonalEdgeStyle;jumpSize=6;html=1;endArrow=open;endFill=0;endSize=14;" parent="1" source="-Nvpflhu0W0NFWy76Kld-14" target="-Nvpflhu0W0NFWy76Kld-53" edge="1">
          <mxGeometry relative="1" as="geometry">
            <Array as="points">
              <mxPoint x="400" y="350" />
              <mxPoint x="400" y="350" />
            </Array>
          </mxGeometry>
        </mxCell>
        <mxCell id="30" value="0..*" style="edgeLabel;html=1;align=center;verticalAlign=middle;resizable=0;points=[];" parent="29" vertex="1" connectable="0">
          <mxGeometry x="-0.1031" y="1" relative="1" as="geometry">
            <mxPoint x="-17" y="10" as="offset" />
          </mxGeometry>
        </mxCell>
        <mxCell id="31" style="edgeStyle=orthogonalEdgeStyle;jumpSize=6;html=1;endArrow=open;endFill=0;endSize=14;dashed=1;" parent="1" source="-Nvpflhu0W0NFWy76Kld-14" target="-Nvpflhu0W0NFWy76Kld-53" edge="1">
          <mxGeometry relative="1" as="geometry">
            <Array as="points">
              <mxPoint x="430" y="350" />
              <mxPoint x="430" y="350" />
            </Array>
          </mxGeometry>
        </mxCell>
        <mxCell id="-Nvpflhu0W0NFWy76Kld-14" value="Boleto" style="swimlane;fontStyle=1;align=center;verticalAlign=top;childLayout=stackLayout;horizontal=1;startSize=30;horizontalStack=0;resizeParent=1;resizeParentMax=0;resizeLast=0;collapsible=0;marginBottom=0;whiteSpace=wrap;html=1;" parent="1" vertex="1">
          <mxGeometry x="300" y="120" width="228" height="194" as="geometry" />
        </mxCell>
        <mxCell id="35" value="- estado: BoletoEstado" style="text;strokeColor=none;fillColor=none;align=left;verticalAlign=top;spacingLeft=4;spacingRight=4;overflow=hidden;rotatable=0;points=[[0,0.5],[1,0.5]];portConstraint=eastwest;whiteSpace=wrap;html=1;" parent="-Nvpflhu0W0NFWy76Kld-14" vertex="1">
          <mxGeometry y="30" width="228" height="26" as="geometry" />
        </mxCell>
        <mxCell id="36" value="- memento: List&amp;lt;BoletoEstado&amp;gt;" style="text;strokeColor=none;fillColor=none;align=left;verticalAlign=top;spacingLeft=4;spacingRight=4;overflow=hidden;rotatable=0;points=[[0,0.5],[1,0.5]];portConstraint=eastwest;whiteSpace=wrap;html=1;" parent="-Nvpflhu0W0NFWy76Kld-14" vertex="1">
          <mxGeometry y="56" width="228" height="26" as="geometry" />
        </mxCell>
        <mxCell id="-Nvpflhu0W0NFWy76Kld-15" value="" style="line;strokeWidth=1;fillColor=none;align=left;verticalAlign=middle;spacingTop=-1;spacingLeft=3;spacingRight=3;rotatable=0;labelPosition=right;points=[];portConstraint=eastwest;strokeColor=inherit;" parent="-Nvpflhu0W0NFWy76Kld-14" vertex="1">
          <mxGeometry y="82" width="228" height="8" as="geometry" />
        </mxCell>
        <mxCell id="37" value="+ getEstado(): BoletoEstado" style="text;strokeColor=none;fillColor=none;align=left;verticalAlign=top;spacingLeft=4;spacingRight=4;overflow=hidden;rotatable=0;points=[[0,0.5],[1,0.5]];portConstraint=eastwest;whiteSpace=wrap;html=1;" parent="-Nvpflhu0W0NFWy76Kld-14" vertex="1">
          <mxGeometry y="90" width="228" height="26" as="geometry" />
        </mxCell>
        <mxCell id="38" value="+ setEstado(estado: BoletoEstado): void" style="text;strokeColor=none;fillColor=none;align=left;verticalAlign=top;spacingLeft=4;spacingRight=4;overflow=hidden;rotatable=0;points=[[0,0.5],[1,0.5]];portConstraint=eastwest;whiteSpace=wrap;html=1;" parent="-Nvpflhu0W0NFWy76Kld-14" vertex="1">
          <mxGeometry y="116" width="228" height="26" as="geometry" />
        </mxCell>
        <mxCell id="39" value="+ restauraEstado(indice: int): void" style="text;strokeColor=none;fillColor=none;align=left;verticalAlign=top;spacingLeft=4;spacingRight=4;overflow=hidden;rotatable=0;points=[[0,0.5],[1,0.5]];portConstraint=eastwest;whiteSpace=wrap;html=1;" parent="-Nvpflhu0W0NFWy76Kld-14" vertex="1">
          <mxGeometry y="142" width="228" height="26" as="geometry" />
        </mxCell>
        <mxCell id="40" value="+ getEstados(): List&amp;lt;BoletoEstado&amp;gt;" style="text;strokeColor=none;fillColor=none;align=left;verticalAlign=top;spacingLeft=4;spacingRight=4;overflow=hidden;rotatable=0;points=[[0,0.5],[1,0.5]];portConstraint=eastwest;whiteSpace=wrap;html=1;" parent="-Nvpflhu0W0NFWy76Kld-14" vertex="1">
          <mxGeometry y="168" width="228" height="26" as="geometry" />
        </mxCell>
        <mxCell id="33" style="edgeStyle=orthogonalEdgeStyle;jumpSize=6;html=1;endArrow=open;endFill=0;endSize=14;" parent="1" source="-Nvpflhu0W0NFWy76Kld-53" target="-Nvpflhu0W0NFWy76Kld-53" edge="1">
          <mxGeometry relative="1" as="geometry">
            <Array as="points">
              <mxPoint x="490" y="420" />
            </Array>
          </mxGeometry>
        </mxCell>
        <mxCell id="34" value="1" style="edgeLabel;html=1;align=center;verticalAlign=middle;resizable=0;points=[];" parent="33" vertex="1" connectable="0">
          <mxGeometry x="0.3232" relative="1" as="geometry">
            <mxPoint x="10" y="-10" as="offset" />
          </mxGeometry>
        </mxCell>
        <mxCell id="-Nvpflhu0W0NFWy76Kld-53" value="BoletoEstado" style="swimlane;fontStyle=1;align=center;verticalAlign=top;childLayout=stackLayout;horizontal=1;startSize=30;horizontalStack=0;resizeParent=1;resizeParentMax=0;resizeLast=0;collapsible=0;marginBottom=0;whiteSpace=wrap;html=1;" parent="1" vertex="1">
          <mxGeometry x="323" y="400" width="181" height="64" as="geometry" />
        </mxCell>
        <mxCell id="-Nvpflhu0W0NFWy76Kld-56" value="" style="line;strokeWidth=1;fillColor=none;align=left;verticalAlign=middle;spacingTop=-1;spacingLeft=3;spacingRight=3;rotatable=0;labelPosition=right;points=[];portConstraint=eastwest;strokeColor=inherit;" parent="-Nvpflhu0W0NFWy76Kld-53" vertex="1">
          <mxGeometry y="30" width="181" height="8" as="geometry" />
        </mxCell>
        <mxCell id="41" value="+ getNomeEstado(): String" style="text;strokeColor=none;fillColor=none;align=left;verticalAlign=top;spacingLeft=4;spacingRight=4;overflow=hidden;rotatable=0;points=[[0,0.5],[1,0.5]];portConstraint=eastwest;whiteSpace=wrap;html=1;" parent="-Nvpflhu0W0NFWy76Kld-53" vertex="1">
          <mxGeometry y="38" width="181" height="26" as="geometry" />
        </mxCell>
        <mxCell id="26" style="edgeStyle=none;jumpSize=6;html=1;endArrow=block;endFill=0;endSize=14;" parent="1" source="2" target="-Nvpflhu0W0NFWy76Kld-53" edge="1">
          <mxGeometry relative="1" as="geometry" />
        </mxCell>
        <mxCell id="2" value="BoletoEstadoAtrasado" style="swimlane;fontStyle=1;align=center;verticalAlign=top;childLayout=stackLayout;horizontal=1;startSize=30;horizontalStack=0;resizeParent=1;resizeParentMax=0;resizeLast=0;collapsible=0;marginBottom=0;whiteSpace=wrap;html=1;" parent="1" vertex="1">
          <mxGeometry x="220" y="600" width="180" height="38" as="geometry" />
        </mxCell>
        <mxCell id="5" value="" style="line;strokeWidth=1;fillColor=none;align=left;verticalAlign=middle;spacingTop=-1;spacingLeft=3;spacingRight=3;rotatable=0;labelPosition=right;points=[];portConstraint=eastwest;strokeColor=inherit;" parent="2" vertex="1">
          <mxGeometry y="30" width="180" height="8" as="geometry" />
        </mxCell>
        <mxCell id="25" style="edgeStyle=none;html=1;endArrow=block;endFill=0;jumpSize=6;endSize=14;" parent="1" source="13" target="-Nvpflhu0W0NFWy76Kld-53" edge="1">
          <mxGeometry relative="1" as="geometry" />
        </mxCell>
        <mxCell id="13" value="BoletoEstadoCancelado" style="swimlane;fontStyle=1;align=center;verticalAlign=top;childLayout=stackLayout;horizontal=1;startSize=30;horizontalStack=0;resizeParent=1;resizeParentMax=0;resizeLast=0;collapsible=0;marginBottom=0;whiteSpace=wrap;html=1;" parent="1" vertex="1">
          <mxGeometry x="420" y="600" width="180" height="38" as="geometry" />
        </mxCell>
        <mxCell id="15" value="" style="line;strokeWidth=1;fillColor=none;align=left;verticalAlign=middle;spacingTop=-1;spacingLeft=3;spacingRight=3;rotatable=0;labelPosition=right;points=[];portConstraint=eastwest;strokeColor=inherit;" parent="13" vertex="1">
          <mxGeometry y="30" width="180" height="8" as="geometry" />
        </mxCell>
        <mxCell id="28" style="edgeStyle=none;jumpSize=6;html=1;endArrow=block;endFill=0;endSize=14;" parent="1" source="17" target="-Nvpflhu0W0NFWy76Kld-53" edge="1">
          <mxGeometry relative="1" as="geometry" />
        </mxCell>
        <mxCell id="17" value="BoletoEstadoPago" style="swimlane;fontStyle=1;align=center;verticalAlign=top;childLayout=stackLayout;horizontal=1;startSize=30;horizontalStack=0;resizeParent=1;resizeParentMax=0;resizeLast=0;collapsible=0;marginBottom=0;whiteSpace=wrap;html=1;" parent="1" vertex="1">
          <mxGeometry x="610" y="600" width="180" height="38" as="geometry" />
        </mxCell>
        <mxCell id="19" value="" style="line;strokeWidth=1;fillColor=none;align=left;verticalAlign=middle;spacingTop=-1;spacingLeft=3;spacingRight=3;rotatable=0;labelPosition=right;points=[];portConstraint=eastwest;strokeColor=inherit;" parent="17" vertex="1">
          <mxGeometry y="30" width="180" height="8" as="geometry" />
        </mxCell>
        <mxCell id="27" style="edgeStyle=none;jumpSize=6;html=1;endArrow=block;endFill=0;endSize=14;" parent="1" source="21" target="-Nvpflhu0W0NFWy76Kld-53" edge="1">
          <mxGeometry relative="1" as="geometry" />
        </mxCell>
        <mxCell id="21" value="BoletoEstadoPendente" style="swimlane;fontStyle=1;align=center;verticalAlign=top;childLayout=stackLayout;horizontal=1;startSize=30;horizontalStack=0;resizeParent=1;resizeParentMax=0;resizeLast=0;collapsible=0;marginBottom=0;whiteSpace=wrap;html=1;" parent="1" vertex="1">
          <mxGeometry x="30" y="600" width="180" height="38" as="geometry" />
        </mxCell>
        <mxCell id="23" value="" style="line;strokeWidth=1;fillColor=none;align=left;verticalAlign=middle;spacingTop=-1;spacingLeft=3;spacingRight=3;rotatable=0;labelPosition=right;points=[];portConstraint=eastwest;strokeColor=inherit;" parent="21" vertex="1">
          <mxGeometry y="30" width="180" height="8" as="geometry" />
        </mxCell>
      </root>
    </mxGraphModel>
  </diagram>
</mxfile>
